<?xml version="1.0" encoding="utf-8"?>
<!-- Generator: Adobe Illustrator 17.1.0, SVG Export Plug-In . SVG Version: 6.00 Build 0)  -->
<!DOCTYPE svg PUBLIC "-//W3C//DTD SVG 1.1//EN" "http://www.w3.org/Graphics/SVG/1.1/DTD/svg11.dtd">
<svg version="1.1" id="Ebene_1" xmlns="http://www.w3.org/2000/svg" xmlns:xlink="http://www.w3.org/1999/xlink" x="0px" y="0px"
	 viewBox="603.5 981.6 100 100" enable-background="new 603.5 981.6 100 100" xml:space="preserve">
<path fill="#4440C0" d="M644,1054c-4.4,0.8-9,0.2-13.6-2c-4.8-2.2-8.6-6-10.6-11c-6.6-16.2,5.2-31.8,20.6-31.8
	c12.4,0,22.4,10,22.4,22.4c0,0.2,0,0.4,0,0.8l12.2,12.2c0.6-1.8,1.2-3.4,1.6-5.4c0.6-2.4,0.8-5,0.8-7.6c0-25.2-25.2-44.6-51.6-34
	c-8.8,3.4-15.8,10.6-19.4,19.4c-10.4,26.4,9,51.6,34,51.6c4.4,0,8.6-0.8,12.6-2.2c1-0.4,1.8-0.8,2.8-1.2l-11-11
	C644.6,1054,644.4,1054,644,1054z"/>
<polygon fill="#6467FF" points="670,1056.2 649,1035.2 659,1034.8 680,1055.8 "/>
<polygon fill="#6467FF" points="660.6,1063.2 639.6,1042.2 649.6,1041.6 670.6,1062.8 "/>
</svg>
