<?xml version="1.0" encoding="utf-8"?>
<!-- Generator: Adobe Illustrator 17.1.0, SVG Export Plug-In . SVG Version: 6.00 Build 0)  -->
<!DOCTYPE svg PUBLIC "-//W3C//DTD SVG 1.1//EN" "http://www.w3.org/Graphics/SVG/1.1/DTD/svg11.dtd">
<svg version="1.1" id="Ebene_1" xmlns="http://www.w3.org/2000/svg" xmlns:xlink="http://www.w3.org/1999/xlink" x="0px" y="0px"
	 viewBox="0 0 133.7 64.2" enable-background="new 0 0 133.7 64.2" xml:space="preserve">
<path fill="#4440C0" d="M26,33.9c-2.2,0.4-4.5,0.1-6.8-1c-2.4-1.1-4.3-3-5.3-5.5c-3.3-8.1,2.6-15.9,10.3-15.9
	c6.2,0,11.2,5,11.2,11.2c0,0.1,0,0.2,0,0.4l6.1,6.1c0.3-0.9,0.6-1.7,0.8-2.7c0.3-1.2,0.4-2.5,0.4-3.8c0-12.6-12.6-22.3-25.8-17
	c-4.4,1.7-7.9,5.3-9.7,9.7c-5.2,13.2,4.5,25.8,17,25.8c2.2,0,4.3-0.4,6.3-1.1c0.5-0.2,0.9-0.4,1.4-0.6L26.4,34
	C26.3,33.9,26.2,33.9,26,33.9z"/>
<polygon fill="#6467FF" points="39,35 28.5,24.5 33.5,24.3 44,34.8 "/>
<polygon fill="#6467FF" points="34.3,38.5 23.8,28 28.8,27.7 39.3,38.3 "/>
<path fill="#070707" d="M63.3,14.8c-4.9,0-8.9,4-8.9,8.9c0,4.9,4,8.9,8.9,8.9c2.1,0,4.1-0.7,5.6-2l2.3,2.3L72,32l-2.2-2.2
	c1.5-1.6,2.4-3.7,2.4-6.1C72.2,18.8,68.2,14.8,63.3,14.8z M55.6,23.7c0-4.2,3.4-7.7,7.7-7.7s7.7,3.4,7.7,7.7c0,4.2-3.4,7.7-7.7,7.7
	S55.6,27.9,55.6,23.7z"/>
<path fill="#070707" d="M83.2,14.8c-4.9,0-8.9,4-8.9,8.9c0,4.9,4,8.9,8.9,8.9c4.9,0,8.9-4,8.9-8.9C92.1,18.8,88.1,14.8,83.2,14.8z
	 M83.2,31.4c-4.2,0-7.7-3.4-7.7-7.7c0-4.2,3.4-7.7,7.7-7.7c4.2,0,7.7,3.4,7.7,7.7C90.9,27.9,87.4,31.4,83.2,31.4z"/>
<path fill="#070707" d="M102.7,16.1c2.5,0,4.6,2.1,4.6,4.6s-2.1,4.6-4.6,4.6c-2.2,0-2.2,0-3.3,0l-1.4,0l0,1.2l1.4,0
	c1.1,0,1.1,0,3.4,0c0.2,0,0.4,0,0.6,0l4.8,5.9h1.6l-5.1-6.2c2.3-0.8,3.9-3,3.9-5.5c0-3.2-2.6-5.8-5.8-5.8c-1.5,0-2.6,0-3.7,0
	c-0.9,0-1.8,0-3,0h-0.6v17.7h1.2V16.2c0.8,0,1.6,0,2.4,0C100,16.1,101.1,16.1,102.7,16.1z"/>
<polygon fill="#070707" points="125.2,31.2 113.6,31.2 120.1,18.1 127.3,32.5 128.6,32.5 120.1,15.3 111.6,32.4 125.7,32.4 "/>
</svg>
